<mxfile host="Electron" modified="2023-11-30T15:44:46.538Z" agent="Mozilla/5.0 (Windows NT 10.0; Win64; x64) AppleWebKit/537.36 (KHTML, like Gecko) draw.io/21.2.8 Chrome/112.0.5615.165 Electron/24.2.0 Safari/537.36" etag="l3GHyZLx6Ya1BQ0TXECO" version="21.2.8" type="device">
  <diagram name="第 1 页" id="5wR0Ig0j9XVbqEgyhH7g">
    <mxGraphModel dx="2949" dy="768" grid="0" gridSize="10" guides="1" tooltips="1" connect="1" arrows="1" fold="1" page="1" pageScale="1" pageWidth="827" pageHeight="1169" math="0" shadow="0">
      <root>
        <mxCell id="0" />
        <mxCell id="1" parent="0" />
        <mxCell id="3GxQSid2Fh1PbnmMhGeD-5" value="&lt;p style=&quot;margin: 0px ; margin-top: 4px ; text-align: center&quot;&gt;&lt;b&gt;SSAction&lt;/b&gt;&lt;/p&gt;&lt;hr size=&quot;1&quot;&gt;&lt;p style=&quot;margin: 0px ; margin-left: 4px&quot;&gt;enable&lt;br&gt;&lt;/p&gt;&lt;p style=&quot;margin: 0px ; margin-left: 4px&quot;&gt;destroy&lt;/p&gt;&lt;p style=&quot;margin: 0px ; margin-left: 4px&quot;&gt;gameObject&lt;/p&gt;&lt;p style=&quot;margin: 0px ; margin-left: 4px&quot;&gt;transform&lt;/p&gt;&lt;p style=&quot;margin: 0px ; margin-left: 4px&quot;&gt;callback&lt;/p&gt;&lt;hr size=&quot;1&quot;&gt;&lt;p style=&quot;margin: 0px ; margin-left: 4px&quot;&gt;Start()&lt;/p&gt;&lt;p style=&quot;margin: 0px ; margin-left: 4px&quot;&gt;Update()&lt;/p&gt;" style="verticalAlign=top;align=left;overflow=fill;fontSize=12;fontFamily=Helvetica;html=1;" vertex="1" parent="1">
          <mxGeometry x="-1640" y="153.5" width="80" height="153" as="geometry" />
        </mxCell>
        <mxCell id="3GxQSid2Fh1PbnmMhGeD-6" value="&lt;p style=&quot;margin: 0px ; margin-top: 4px ; text-align: center&quot;&gt;&lt;b&gt;SSActionManager&lt;/b&gt;&lt;/p&gt;&lt;hr size=&quot;1&quot;&gt;&lt;p style=&quot;margin: 0px ; margin-left: 4px&quot;&gt;actions&lt;/p&gt;&lt;p style=&quot;margin: 0px ; margin-left: 4px&quot;&gt;waitingAdd&lt;/p&gt;&lt;p style=&quot;margin: 0px ; margin-left: 4px&quot;&gt;waitingDelete&lt;/p&gt;&lt;hr size=&quot;1&quot;&gt;&lt;p style=&quot;margin: 0px ; margin-left: 4px&quot;&gt;Update()&lt;/p&gt;&lt;p style=&quot;margin: 0px ; margin-left: 4px&quot;&gt;RunAction(GameObject,&amp;nbsp;&lt;/p&gt;&lt;p style=&quot;margin: 0px ; margin-left: 4px&quot;&gt;SSAction, ISSActionCallback)&lt;/p&gt;" style="verticalAlign=top;align=left;overflow=fill;fontSize=12;fontFamily=Helvetica;html=1;" vertex="1" parent="1">
          <mxGeometry x="-1520" y="160" width="170" height="140" as="geometry" />
        </mxCell>
        <mxCell id="3GxQSid2Fh1PbnmMhGeD-7" value="&lt;p style=&quot;margin: 0px ; margin-top: 4px ; text-align: center&quot;&gt;&amp;lt;&amp;lt;interface&amp;gt;&amp;gt;&lt;br&gt;&lt;b&gt;ISSActionCallback&lt;/b&gt;&lt;/p&gt;&lt;hr size=&quot;1&quot;&gt;&lt;p style=&quot;margin: 0px ; margin-left: 4px&quot;&gt;SSActionEvent(source...)&lt;/p&gt;" style="verticalAlign=top;align=left;overflow=fill;fontSize=12;fontFamily=Helvetica;html=1;" vertex="1" parent="1">
          <mxGeometry x="-1550" y="378" width="148" height="72" as="geometry" />
        </mxCell>
        <mxCell id="3GxQSid2Fh1PbnmMhGeD-8" value="" style="endArrow=open;html=1;rounded=0;exitX=0;exitY=0.5;exitDx=0;exitDy=0;entryX=1;entryY=0.5;entryDx=0;entryDy=0;endFill=0;endSize=10;" edge="1" parent="1" source="3GxQSid2Fh1PbnmMhGeD-6" target="3GxQSid2Fh1PbnmMhGeD-5">
          <mxGeometry width="50" height="50" relative="1" as="geometry">
            <mxPoint x="-1260" y="290" as="sourcePoint" />
            <mxPoint x="-1210" y="240" as="targetPoint" />
          </mxGeometry>
        </mxCell>
        <mxCell id="3GxQSid2Fh1PbnmMhGeD-9" value="&lt;p style=&quot;margin: 0px ; margin-top: 4px ; text-align: center&quot;&gt;&lt;b&gt;ArrowShootAction&lt;/b&gt;&lt;/p&gt;&lt;hr size=&quot;1&quot;&gt;&lt;p style=&quot;margin: 0px ; margin-left: 4px&quot;&gt;arrowSpeed&lt;/p&gt;&lt;p style=&quot;margin: 0px ; margin-left: 4px&quot;&gt;arrowForce&lt;/p&gt;&lt;hr size=&quot;1&quot;&gt;&lt;p style=&quot;margin: 0px ; margin-left: 4px&quot;&gt;Start()&lt;/p&gt;&lt;p style=&quot;margin: 0px ; margin-left: 4px&quot;&gt;Update()&lt;/p&gt;&lt;p style=&quot;margin: 0px ; margin-left: 4px&quot;&gt;GetSSAction()&lt;/p&gt;" style="verticalAlign=top;align=left;overflow=fill;fontSize=12;fontFamily=Helvetica;html=1;" vertex="1" parent="1">
          <mxGeometry x="-1242.5" y="525" width="125" height="120" as="geometry" />
        </mxCell>
        <mxCell id="3GxQSid2Fh1PbnmMhGeD-11" value="&lt;p style=&quot;margin: 0px ; margin-top: 4px ; text-align: center&quot;&gt;&lt;b&gt;ArrowTrembleAction&lt;/b&gt;&lt;/p&gt;&lt;hr size=&quot;1&quot;&gt;&lt;p style=&quot;margin: 0px ; margin-left: 4px&quot;&gt;tremble_radius&lt;/p&gt;&lt;p style=&quot;margin: 0px ; margin-left: 4px&quot;&gt;tremble_time&lt;/p&gt;&lt;hr size=&quot;1&quot;&gt;&lt;p style=&quot;margin: 0px ; margin-left: 4px&quot;&gt;Start()&lt;/p&gt;&lt;p style=&quot;margin: 0px ; margin-left: 4px&quot;&gt;Update()&lt;/p&gt;&lt;p style=&quot;margin: 0px ; margin-left: 4px&quot;&gt;GetSSAction()&lt;br&gt;&lt;/p&gt;" style="verticalAlign=top;align=left;overflow=fill;fontSize=12;fontFamily=Helvetica;html=1;" vertex="1" parent="1">
          <mxGeometry x="-1402" y="20" width="150" height="120" as="geometry" />
        </mxCell>
        <mxCell id="3GxQSid2Fh1PbnmMhGeD-12" value="&lt;p style=&quot;margin: 0px ; margin-top: 4px ; text-align: center&quot;&gt;&amp;lt;&amp;lt;adapter&amp;gt;&amp;gt;&lt;/p&gt;&lt;p style=&quot;margin: 0px ; margin-top: 4px ; text-align: center&quot;&gt;&amp;lt;&amp;lt;scenes singleton&amp;gt;&amp;gt;&lt;/p&gt;&lt;b style=&quot;border-color: var(--border-color);&quot;&gt;&lt;div style=&quot;text-align: center;&quot;&gt;&lt;b style=&quot;background-color: initial; border-color: var(--border-color);&quot;&gt;ArrowShoot&lt;b style=&quot;background-color: initial;&quot;&gt;Manager&lt;/b&gt;&lt;/b&gt;&lt;/div&gt;&lt;/b&gt;&lt;hr size=&quot;1&quot;&gt;&lt;p style=&quot;margin: 0px ; margin-left: 4px&quot;&gt;arrowShoot&lt;/p&gt;&lt;p style=&quot;margin: 0px ; margin-left: 4px&quot;&gt;mainController&lt;/p&gt;&lt;hr size=&quot;1&quot;&gt;&lt;p style=&quot;margin: 0px ; margin-left: 4px&quot;&gt;Start()&lt;/p&gt;&lt;p style=&quot;margin: 0px ; margin-left: 4px&quot;&gt;Shoot(GameObject, float)&lt;/p&gt;&lt;p style=&quot;margin: 0px ; margin-left: 4px&quot;&gt;SSActionEvent(source...)&lt;br&gt;&lt;/p&gt;" style="verticalAlign=top;align=left;overflow=fill;fontSize=12;fontFamily=Helvetica;html=1;" vertex="1" parent="1">
          <mxGeometry x="-1270" y="280" width="180" height="160" as="geometry" />
        </mxCell>
        <mxCell id="3GxQSid2Fh1PbnmMhGeD-13" value="" style="endArrow=open;html=1;rounded=0;exitX=0;exitY=0.5;exitDx=0;exitDy=0;entryX=1;entryY=0.75;entryDx=0;entryDy=0;edgeStyle=orthogonalEdgeStyle;endFill=0;endSize=10;" edge="1" parent="1" source="3GxQSid2Fh1PbnmMhGeD-12" target="3GxQSid2Fh1PbnmMhGeD-7">
          <mxGeometry width="50" height="50" relative="1" as="geometry">
            <mxPoint x="-1260" y="390" as="sourcePoint" />
            <mxPoint x="-1210" y="340" as="targetPoint" />
          </mxGeometry>
        </mxCell>
        <mxCell id="3GxQSid2Fh1PbnmMhGeD-14" value="" style="endArrow=block;html=1;rounded=0;entryX=1;entryY=0.25;entryDx=0;entryDy=0;exitX=0;exitY=0.25;exitDx=0;exitDy=0;edgeStyle=orthogonalEdgeStyle;endFill=0;dashed=1;endSize=15;" edge="1" parent="1" source="3GxQSid2Fh1PbnmMhGeD-12" target="3GxQSid2Fh1PbnmMhGeD-6">
          <mxGeometry width="50" height="50" relative="1" as="geometry">
            <mxPoint x="-1320" y="300" as="sourcePoint" />
            <mxPoint x="-1210" y="240" as="targetPoint" />
          </mxGeometry>
        </mxCell>
        <mxCell id="3GxQSid2Fh1PbnmMhGeD-15" value="" style="endArrow=open;html=1;rounded=0;exitX=0.5;exitY=1;exitDx=0;exitDy=0;endFill=0;endSize=10;" edge="1" parent="1" source="3GxQSid2Fh1PbnmMhGeD-12" target="3GxQSid2Fh1PbnmMhGeD-9">
          <mxGeometry width="50" height="50" relative="1" as="geometry">
            <mxPoint x="-1260" y="390" as="sourcePoint" />
            <mxPoint x="-1210" y="340" as="targetPoint" />
          </mxGeometry>
        </mxCell>
        <mxCell id="3GxQSid2Fh1PbnmMhGeD-16" value="" style="endArrow=block;html=1;rounded=0;entryX=0.5;entryY=0;entryDx=0;entryDy=0;exitX=0;exitY=0.5;exitDx=0;exitDy=0;edgeStyle=orthogonalEdgeStyle;endFill=0;dashed=1;endSize=15;" edge="1" parent="1" source="3GxQSid2Fh1PbnmMhGeD-11" target="3GxQSid2Fh1PbnmMhGeD-5">
          <mxGeometry width="50" height="50" relative="1" as="geometry">
            <mxPoint x="-1260" y="330" as="sourcePoint" />
            <mxPoint x="-1340" y="205" as="targetPoint" />
          </mxGeometry>
        </mxCell>
        <mxCell id="3GxQSid2Fh1PbnmMhGeD-17" value="" style="endArrow=block;html=1;rounded=0;entryX=0.5;entryY=1;entryDx=0;entryDy=0;exitX=0;exitY=0.5;exitDx=0;exitDy=0;edgeStyle=orthogonalEdgeStyle;endFill=0;dashed=1;endSize=15;" edge="1" parent="1" source="3GxQSid2Fh1PbnmMhGeD-9" target="3GxQSid2Fh1PbnmMhGeD-5">
          <mxGeometry width="50" height="50" relative="1" as="geometry">
            <mxPoint x="-1250" y="340" as="sourcePoint" />
            <mxPoint x="-1330" y="215" as="targetPoint" />
          </mxGeometry>
        </mxCell>
        <mxCell id="3GxQSid2Fh1PbnmMhGeD-18" value="&lt;p style=&quot;margin: 0px ; margin-top: 4px ; text-align: center&quot;&gt;&amp;lt;&amp;lt;SceneController&amp;gt;&amp;gt;&lt;/p&gt;&lt;p style=&quot;margin: 0px ; margin-top: 4px ; text-align: center&quot;&gt;&lt;span style=&quot;font-weight: 700&quot;&gt;MainContrlloer&lt;/span&gt;&lt;br&gt;&lt;/p&gt;&lt;hr size=&quot;1&quot;&gt;&lt;p style=&quot;margin: 0px ; margin-left: 4px&quot;&gt;&lt;span style=&quot;background-color: initial;&quot;&gt;arrow_manager&lt;/span&gt;&lt;br&gt;&lt;/p&gt;&lt;p style=&quot;margin: 0px ; margin-left: 4px&quot;&gt;&lt;span style=&quot;background-color: initial;&quot;&gt;factory&lt;/span&gt;&lt;/p&gt;&lt;p style=&quot;margin: 0px ; margin-left: 4px&quot;&gt;&lt;span style=&quot;background-color: initial;&quot;&gt;...&lt;/span&gt;&lt;/p&gt;&lt;hr size=&quot;1&quot;&gt;&lt;p style=&quot;border-color: var(--border-color); margin: 0px 0px 0px 4px;&quot;&gt;Start()&lt;/p&gt;&lt;p style=&quot;border-color: var(--border-color); margin: 0px 0px 0px 4px;&quot;&gt;Update()&lt;/p&gt;&lt;p style=&quot;border-color: var(--border-color); margin: 0px 0px 0px 4px;&quot;&gt;LoadResource()&lt;/p&gt;&lt;p style=&quot;border-color: var(--border-color); margin: 0px 0px 0px 4px;&quot;&gt;...&lt;/p&gt;" style="verticalAlign=top;align=left;overflow=fill;fontSize=12;fontFamily=Helvetica;html=1;" vertex="1" parent="1">
          <mxGeometry x="-1027" y="275" width="154" height="170" as="geometry" />
        </mxCell>
        <mxCell id="3GxQSid2Fh1PbnmMhGeD-19" style="rounded=0;orthogonalLoop=1;jettySize=auto;html=1;entryX=0.5;entryY=0;entryDx=0;entryDy=0;endArrow=open;endFill=0;endSize=10;" edge="1" parent="1" source="3GxQSid2Fh1PbnmMhGeD-20" target="3GxQSid2Fh1PbnmMhGeD-18">
          <mxGeometry relative="1" as="geometry">
            <mxPoint x="-957" y="205" as="targetPoint" />
          </mxGeometry>
        </mxCell>
        <mxCell id="3GxQSid2Fh1PbnmMhGeD-20" value="&lt;p style=&quot;margin: 0px ; margin-top: 4px ; text-align: center&quot;&gt;&amp;lt;&amp;lt;Singleton&amp;gt;&amp;gt;&lt;/p&gt;&lt;p style=&quot;margin: 0px ; margin-top: 4px ; text-align: center&quot;&gt;&lt;b&gt;SSDirector&lt;/b&gt;&lt;/p&gt;&lt;hr size=&quot;1&quot;&gt;&lt;p style=&quot;margin: 0px ; margin-left: 4px&quot;&gt;instance&lt;/p&gt;&lt;p style=&quot;margin: 0px ; margin-left: 4px&quot;&gt;mainController&lt;/p&gt;&lt;hr size=&quot;1&quot;&gt;&lt;p style=&quot;margin: 0px ; margin-left: 4px&quot;&gt;GetInstance()&lt;/p&gt;" style="verticalAlign=top;align=left;overflow=fill;fontSize=12;fontFamily=Helvetica;html=1;" vertex="1" parent="1">
          <mxGeometry x="-1030" y="45" width="160" height="110" as="geometry" />
        </mxCell>
        <mxCell id="3GxQSid2Fh1PbnmMhGeD-21" value="" style="endArrow=open;html=1;rounded=0;exitX=0;exitY=0.5;exitDx=0;exitDy=0;endFill=0;endSize=10;" edge="1" parent="1" source="3GxQSid2Fh1PbnmMhGeD-18" target="3GxQSid2Fh1PbnmMhGeD-12">
          <mxGeometry width="50" height="50" relative="1" as="geometry">
            <mxPoint x="-1230" y="210" as="sourcePoint" />
            <mxPoint x="-1180" y="160" as="targetPoint" />
          </mxGeometry>
        </mxCell>
        <mxCell id="3GxQSid2Fh1PbnmMhGeD-22" value="Second Camera" style="swimlane;fontStyle=1;align=center;verticalAlign=top;childLayout=stackLayout;horizontal=1;startSize=26;horizontalStack=0;resizeParent=1;resizeParentMax=0;resizeLast=0;collapsible=1;marginBottom=0;whiteSpace=wrap;html=1;" vertex="1" parent="1">
          <mxGeometry x="-1030" y="525" width="160" height="150" as="geometry" />
        </mxCell>
        <mxCell id="3GxQSid2Fh1PbnmMhGeD-23" value="&lt;div&gt;show_time&amp;nbsp;&lt;/div&gt;&lt;div&gt;show&lt;/div&gt;&lt;div&gt;curArrow&lt;/div&gt;&lt;div&gt;&lt;span style=&quot;background-color: initial;&quot;&gt;offset&lt;/span&gt;&lt;/div&gt;" style="text;strokeColor=none;fillColor=none;align=left;verticalAlign=top;spacingLeft=4;spacingRight=4;overflow=hidden;rotatable=0;points=[[0,0.5],[1,0.5]];portConstraint=eastwest;whiteSpace=wrap;html=1;" vertex="1" parent="3GxQSid2Fh1PbnmMhGeD-22">
          <mxGeometry y="26" width="160" height="64" as="geometry" />
        </mxCell>
        <mxCell id="3GxQSid2Fh1PbnmMhGeD-24" value="" style="line;strokeWidth=1;fillColor=none;align=left;verticalAlign=middle;spacingTop=-1;spacingLeft=3;spacingRight=3;rotatable=0;labelPosition=right;points=[];portConstraint=eastwest;strokeColor=inherit;" vertex="1" parent="3GxQSid2Fh1PbnmMhGeD-22">
          <mxGeometry y="90" width="160" height="8" as="geometry" />
        </mxCell>
        <mxCell id="3GxQSid2Fh1PbnmMhGeD-25" value="Start()&lt;br&gt;Update()&lt;br&gt;ShowCamera()" style="text;strokeColor=none;fillColor=none;align=left;verticalAlign=top;spacingLeft=4;spacingRight=4;overflow=hidden;rotatable=0;points=[[0,0.5],[1,0.5]];portConstraint=eastwest;whiteSpace=wrap;html=1;" vertex="1" parent="3GxQSid2Fh1PbnmMhGeD-22">
          <mxGeometry y="98" width="160" height="52" as="geometry" />
        </mxCell>
        <mxCell id="3GxQSid2Fh1PbnmMhGeD-26" value="" style="endArrow=open;html=1;rounded=0;exitX=0.5;exitY=1;exitDx=0;exitDy=0;endFill=0;endSize=10;entryX=0.5;entryY=0;entryDx=0;entryDy=0;" edge="1" parent="1" source="3GxQSid2Fh1PbnmMhGeD-18" target="3GxQSid2Fh1PbnmMhGeD-22">
          <mxGeometry width="50" height="50" relative="1" as="geometry">
            <mxPoint x="-1170" y="450" as="sourcePoint" />
            <mxPoint x="-1170" y="535" as="targetPoint" />
          </mxGeometry>
        </mxCell>
        <mxCell id="3GxQSid2Fh1PbnmMhGeD-27" value="&lt;p style=&quot;margin: 0px ; margin-top: 4px ; text-align: center&quot;&gt;&amp;lt;&amp;lt;InteractionView&amp;gt;&amp;gt;&lt;/p&gt;&lt;p style=&quot;margin: 0px ; margin-top: 4px ; text-align: center&quot;&gt;&lt;b&gt;UserGUI&lt;/b&gt;&lt;/p&gt;&lt;hr size=&quot;1&quot;&gt;&lt;p style=&quot;margin: 0px ; margin-left: 4px&quot;&gt;mainController&lt;br style=&quot;padding: 0px ; margin: 0px&quot;&gt;texture&lt;/p&gt;&lt;p style=&quot;margin: 0px ; margin-left: 4px&quot;&gt;time&lt;/p&gt;&lt;hr size=&quot;1&quot;&gt;&lt;p style=&quot;margin: 0px ; margin-left: 4px&quot;&gt;Start()&lt;br style=&quot;padding: 0px ; margin: 0px&quot;&gt;Update()&lt;br style=&quot;padding: 0px ; margin: 0px&quot;&gt;OnGUI()&lt;br&gt;&lt;/p&gt;" style="verticalAlign=top;align=left;overflow=fill;fontSize=12;fontFamily=Helvetica;html=1;" vertex="1" parent="1">
          <mxGeometry x="-1214" y="10" width="124" height="160" as="geometry" />
        </mxCell>
        <mxCell id="3GxQSid2Fh1PbnmMhGeD-28" style="rounded=0;orthogonalLoop=1;jettySize=auto;html=1;entryX=0.5;entryY=1;entryDx=0;entryDy=0;endArrow=open;endFill=0;endSize=10;exitX=0;exitY=0.25;exitDx=0;exitDy=0;edgeStyle=orthogonalEdgeStyle;" edge="1" parent="1" source="3GxQSid2Fh1PbnmMhGeD-18" target="3GxQSid2Fh1PbnmMhGeD-27">
          <mxGeometry relative="1" as="geometry">
            <mxPoint x="-940" y="285" as="targetPoint" />
            <mxPoint x="-940" y="165" as="sourcePoint" />
            <Array as="points">
              <mxPoint x="-1070" y="318" />
              <mxPoint x="-1070" y="240" />
              <mxPoint x="-1152" y="240" />
            </Array>
          </mxGeometry>
        </mxCell>
      </root>
    </mxGraphModel>
  </diagram>
</mxfile>
